<svg xmlns="http://www.w3.org/2000/svg" width="200" height="200"><path fill="#361e5b" d="M187.27 52.91c0-.11.01-.22.01-.33a5.15 5.15 0 0 0-2.58-4.47c-.15-.09-.3-.16-.46-.23L102.58.68a5.1 5.1 0 0 0-5.1 0L15.28 48.1a5.09 5.09 0 0 0-2.55 4.41l-.04 94.9c0 1.82.97 3.51 2.55 4.42l82.16 47.49a5.1 5.1 0 0 0 2.55.68h.11c.9 0 1.78-.24 2.55-.68l82.16-47.49c1.58-.91 2.55-2.6 2.55-4.42l-.04-94.5Z"/><path fill="#16d6c7" d="M100 16 27.25 58v84L100 184l72.75-42V58z"/><path fill="#027f9e" d="M172.75 58v84L100 184v-83.99z"/><path fill="#17a6b2" d="M172.75 58 100 100.01 27.25 58 100 16z"/></svg>